<?xml version="1.0" encoding="iso-8859-1"?>
<!-- Generator: Adobe Illustrator 19.0.0, SVG Export Plug-In . SVG Version: 6.00 Build 0)  -->
<svg version="1.1" id="Capa_1" xmlns="http://www.w3.org/2000/svg" xmlns:xlink="http://www.w3.org/1999/xlink" x="0px" y="0px"
	 viewBox="0 0 482.826 482.826" style="enable-background:new 0 0 482.826 482.826;" xml:space="preserve">
<g>
	<path fill="#3f3a37" d="M458.591,228.537h-78.56V109.723C380.031,49.221,330.809,0,270.307,0c-39.179,0-73.62,20.645-93.036,51.622h-61.246
		L11.251,157.161v282.37c0,7.16,5.825,12.984,12.985,12.984h235.25V241.523c0-16.707,13.592-30.299,30.298-30.299h33.632v-54.063
		L218.643,51.622h-20.126c16.956-20.911,42.833-34.309,71.79-34.309c50.956,0,92.411,41.454,92.411,92.409v118.814h-72.934
		c-7.16,0-12.986,5.824-12.986,12.985v228.321c0,7.16,5.825,12.984,12.986,12.984h168.807c7.16,0,12.984-5.824,12.984-12.984
		V241.523C471.575,234.361,465.751,228.537,458.591,228.537z M204.299,127.902c0,20.287-16.504,36.791-36.791,36.791
		c-20.286,0-36.79-16.504-36.79-36.791c0-18.45,13.653-33.767,31.384-36.391c-0.994,5.926-1.52,12.006-1.52,18.209
		c-7.326,2.8-12.552,9.885-12.552,18.182c0,10.74,8.738,19.478,19.478,19.478c10.74,0,19.478-8.737,19.478-19.478
		c0-6.984-3.709-13.106-9.249-16.545c0,0-0.383-12.373,1.685-18.255C193.878,98.064,204.299,111.785,204.299,127.902z
		 M396.05,395.186c-18.571,16.577-46.141,17.602-63.743,0c-1.811-1.811-3.443-3.763-4.91-5.814
		c-12.13,1.676-24.555,2.13-36.005,2.13c-3.83,0-6.934-3.105-6.934-6.934c0-3.83,3.105-6.935,6.934-6.935
		c10.862,0,20.637-0.482,29.378-1.454c-5.081-15.83-1.773-33.756,11.537-44.736c31.667-26.125,63.31-2.019,98.884-37.592
		c5.107-5.108,11.098-1.488,10.828,6.333C441.298,321.056,431.123,363.878,396.05,395.186z"/>
</g>
<g>
</g>
<g>
</g>
<g>
</g>
<g>
</g>
<g>
</g>
<g>
</g>
<g>
</g>
<g>
</g>
<g>
</g>
<g>
</g>
<g>
</g>
<g>
</g>
<g>
</g>
<g>
</g>
<g>
</g>
</svg>
