<?xml version="1.0" encoding="iso-8859-1"?>
<!-- Generator: Adobe Illustrator 16.0.0, SVG Export Plug-In . SVG Version: 6.00 Build 0)  -->
<!DOCTYPE svg PUBLIC "-//W3C//DTD SVG 1.1//EN" "http://www.w3.org/Graphics/SVG/1.1/DTD/svg11.dtd">
<svg version="1.1" id="Capa_1" xmlns="http://www.w3.org/2000/svg" xmlns:xlink="http://www.w3.org/1999/xlink" x="0px" y="0px"
	 width="573.75px" height="573.75px" viewBox="0 0 573.75 573.75" style="enable-background:new 0 0 573.75 573.75;"
	 xml:space="preserve">
<g>
	<g id="Layer_1_23_">
		<g>
			<path fill="#290066" d="M91.8,395.926l87.975-11.475c26.775-3.825,47.175-26.775,47.175-53.55v-99.45c0-21.675-12.75-40.8-31.875-49.725
				l-80.325-36.975c-25.5-11.475-54.825-10.2-77.775,5.1C14.025,165.151,0,190.651,0,218.701v98.175c0,22.95,10.2,45.9,28.05,61.2
				C45.9,392.101,68.85,398.476,91.8,395.926z"/>
			<path fill="#290066" d="M218.025,420.151c-5.1-5.101-12.75-7.65-20.4-6.375l-77.775,11.475c-40.8,5.1-71.4,39.525-71.4,80.325l0,0
				c0,19.125,10.2,36.975,26.775,47.175c16.575,10.2,36.975,10.2,53.55,1.275l84.15-44.625c8.925-5.101,14.025-12.75,14.025-22.95
				v-45.9C226.95,432.901,224.4,425.251,218.025,420.151z"/>
			<path fill="#290066" d="M285.6,191.926c-20.4,0-36.975,16.575-36.975,38.25v249.9c0,20.399,16.575,38.25,36.975,38.25
				c20.4,0,36.974-16.575,36.974-38.25v-249.9C323.85,208.501,307.275,191.926,285.6,191.926z"/>
			<path fill="#290066" d="M535.5,148.576c-22.949-15.3-53.551-16.575-77.775-5.1L377.4,180.451c-19.125,8.925-31.875,28.05-31.875,49.725v99.45
				c0,26.775,20.4,51,47.174,53.55l87.977,11.476c22.949,2.55,47.174-3.825,65.023-19.125c17.852-15.301,28.051-38.25,28.051-61.2
				v-98.175C572.475,189.376,558.449,162.601,535.5,148.576z"/>
			<path fill="#290066" d="M451.35,425.251l-77.775-10.2c-7.648-1.274-15.299,1.275-20.398,6.375c-5.102,5.101-8.926,11.476-8.926,19.125v45.9
				c0,10.2,5.1,17.85,14.025,22.95l84.15,44.625c16.574,8.925,36.975,8.925,53.549-1.275c16.576-10.2,26.775-28.05,26.775-47.175
				l0,0C522.75,464.776,492.15,430.351,451.35,425.251z"/>
			<g>
				<path fill="#290066" d="M261.375,170.251c-6.375,0-12.75-7.65-12.75-14.025c0-3.825-5.1-93.075-80.325-117.3c-6.375-2.55-10.2-10.2-7.65-16.575
					s8.925-10.2,16.575-8.925c91.8,29.325,98.175,137.7,98.175,141.525C274.125,162.601,269.025,170.251,261.375,170.251
					L261.375,170.251z"/>
			</g>
			<g>
				<path fill="#290066" d="M312.375,170.251L312.375,170.251c-7.65,0-12.75-8.925-12.75-15.3c0-5.1,6.375-110.925,98.176-140.25
					c6.375-2.55,14.023,1.275,16.574,7.65s-1.275,14.025-7.65,15.3C331.5,61.876,326.4,154.951,326.4,156.226
					C325.125,162.601,318.75,170.251,312.375,170.251z"/>
			</g>
		</g>
	</g>
</g>
<g>
</g>
<g>
</g>
<g>
</g>
<g>
</g>
<g>
</g>
<g>
</g>
<g>
</g>
<g>
</g>
<g>
</g>
<g>
</g>
<g>
</g>
<g>
</g>
<g>
</g>
<g>
</g>
<g>
</g>
</svg>
