<?xml version="1.0" encoding="iso-8859-1"?>
<!-- Generator: Adobe Illustrator 16.0.0, SVG Export Plug-In . SVG Version: 6.00 Build 0)  -->
<!DOCTYPE svg PUBLIC "-//W3C//DTD SVG 1.1//EN" "http://www.w3.org/Graphics/SVG/1.1/DTD/svg11.dtd">
<svg version="1.1" id="Capa_1" xmlns="http://www.w3.org/2000/svg" xmlns:xlink="http://www.w3.org/1999/xlink" x="0px" y="0px"
	 width="894.912px" height="894.912px" viewBox="0 0 894.912 894.912" style="enable-background:new 0 0 894.912 894.912;"
	 xml:space="preserve">
<g>
	<g>
		<path d="M447.457,0C200.73,0,0,200.727,0,447.456c0,246.727,200.73,447.456,447.457,447.456
			c246.727,0,447.456-200.729,447.456-447.456C894.912,200.727,694.182,0,447.457,0z M447.457,858.034
			c-226.394,0-410.58-184.187-410.58-410.578c0-226.393,184.186-410.579,410.58-410.579c226.393,0,410.577,184.186,410.577,410.579
			C858.033,673.849,673.848,858.034,447.457,858.034z"/>
		<path d="M447.449,185.231l-14.72,19.777c-14.927,20.043-145.784,198.198-145.784,280.418c0,82.292,62.26,150.28,142.144,159.421
			v63.466h36.714v-63.466c79.891-9.141,142.158-77.129,142.158-159.421c0-82.22-130.865-260.375-145.793-280.417L447.449,185.231z
			 M429.088,607.709c-48.007-7.19-87.053-41.928-100.416-87.654l100.416,75.086V607.709L429.088,607.709z M429.088,549.299
			l-103.952-77.718c1.506-8.029,4.137-16.998,7.679-26.685l96.272,71.98L429.088,549.299L429.088,549.299z M429.088,471.036
			l-81.359-60.826c3.699-7.665,7.707-15.521,11.958-23.479l69.401,51.893V471.036z M429.088,392.789l-51.276-38.342
			c4.402-7.507,8.904-14.978,13.45-22.369l37.826,28.284V392.789z M429.088,314.533l-18.132-13.564
			c6.188-9.521,12.296-18.691,18.132-27.287V314.533z M465.803,273.653c5.842,8.604,11.951,17.78,18.152,27.316l-18.152,13.579
			V273.653z M465.803,360.375l37.848-28.305c4.553,7.398,9.057,14.869,13.449,22.376l-51.297,38.363V360.375L465.803,360.375z
			 M465.803,438.638l69.422-51.906c4.252,7.958,8.252,15.809,11.959,23.473l-81.381,60.854V438.638z M465.803,516.899l96.285-72.011
			c3.543,9.687,6.174,18.662,7.68,26.691l-103.965,77.739V516.899L465.803,516.899z M465.803,595.162l100.422-75.101
			c-13.355,45.72-52.408,80.463-100.422,87.646V595.162z"/>
	</g>
</g>
<g>
</g>
<g>
</g>
<g>
</g>
<g>
</g>
<g>
</g>
<g>
</g>
<g>
</g>
<g>
</g>
<g>
</g>
<g>
</g>
<g>
</g>
<g>
</g>
<g>
</g>
<g>
</g>
<g>
</g>
</svg>
