<?xml version="1.0" encoding="iso-8859-1"?>
<!-- Generator: Adobe Illustrator 16.0.0, SVG Export Plug-In . SVG Version: 6.00 Build 0)  -->
<!DOCTYPE svg PUBLIC "-//W3C//DTD SVG 1.1//EN" "http://www.w3.org/Graphics/SVG/1.1/DTD/svg11.dtd">
<svg version="1.1" id="Capa_1" xmlns="http://www.w3.org/2000/svg" xmlns:xlink="http://www.w3.org/1999/xlink" x="0px" y="0px"
	 width="546.548px" height="546.548px" viewBox="0 0 546.548 546.548" style="enable-background:new 0 0 546.548 546.548;"
	 xml:space="preserve">
<g>
	<path d="M440.669,197.002H285.22c-6.983-25.945-12.627-39.627-18.629-46.783c2.561-5.239,5.617-10.09,9.342-13.901
		c4.029-4.153,15.842-3.188,22.255-1.743c0,0,3.07,3.441,4.864,5.078c26.24,23.88,60.499,16.351,78.179,10.856
		C473.831,121.766,433.466,0,433.466,0c-16.421,26.625-115.59,31.833-134.846,68.244c-9.254,17.527-11.803,31.708-10.425,43.185
		c6.358-0.695,80.018-9.644,118.142-54.862c0,0-44.565,69.442-114.628,67.716c-13.894-0.348-22.333-0.619-31.633,20.553
		c-5.016-2.556-10.607-2.406-17.579-2.23c-70.065,1.727-114.623-67.716-114.623-67.716c38.105,45.218,111.772,54.167,118.129,54.862
		c1.384-11.467-1.165-25.658-10.431-43.185C216.32,50.151,117.15,44.955,100.729,18.323c0,0-40.351,121.765,52.234,150.513
		c17.68,5.488,51.947,13.02,78.183-10.862c1.792-1.636,4.856-5.069,4.856-5.069c6.43-1.445,18.226-2.411,22.264,1.737
		c10.421,10.714,15.938,29.529,18.638,42.361H105.867c-13.589,0-24.61,11.015-24.61,24.611v27.086
		c0,13.598,11.021,24.613,24.61,24.613h7.445l19.636,248.619c0,13.612,11.02,24.616,24.621,24.616h228.688
		c13.591,0,24.63-11.004,24.63-24.616l22.438-248.663l7.332,0.039c13.605,0,24.635-11.016,24.635-24.613v-27.086
		C465.272,208.018,454.239,197.002,440.669,197.002z"/>
</g>
<g>
</g>
<g>
</g>
<g>
</g>
<g>
</g>
<g>
</g>
<g>
</g>
<g>
</g>
<g>
</g>
<g>
</g>
<g>
</g>
<g>
</g>
<g>
</g>
<g>
</g>
<g>
</g>
<g>
</g>
</svg>
